<?xml version="1.0" encoding="utf-8"?>
<!-- Generator: Adobe Illustrator 24.0.2, SVG Export Plug-In . SVG Version: 6.00 Build 0)  -->
<svg version="1.1" id="Capa_1" xmlns="http://www.w3.org/2000/svg" xmlns:xlink="http://www.w3.org/1999/xlink" x="0px" y="0px"
	 viewBox="0 0 211 145" style="enable-background:new 0 0 211 145;" xml:space="preserve">
<style type="text/css">
	.st0{fill:#8E8E8E;}
</style>
<g>
	<g>
		<path class="st0" d="M193.9,0.6h-42.1c-1.5,0-2.8,1.2-2.8,2.8s1.2,2.8,2.8,2.8h42.1c0.5,0,0.9,0.4,0.9,0.9v16.8H16.2V7
			c0-0.5,0.4-0.9,0.9-0.9H139c1.5,0,2.8-1.2,2.8-2.8s-1.2-2.8-2.8-2.8H17.1c-3.6,0-6.5,2.9-6.5,6.5v131.5c0,3.6,2.9,6.5,6.5,6.5h148
			c1.5,0,2.8-1.2,2.8-2.8s-1.2-2.8-2.8-2.8h-148c-0.5,0-0.9-0.4-0.9-0.9V29.4h178.6v36c0,1.5,1.2,2.8,2.8,2.8c1.5,0,2.8-1.2,2.8-2.8
			V7C200.4,3.5,197.5,0.6,193.9,0.6L193.9,0.6z"/>
		<path class="st0" d="M197.6,75.4c-1.5,0-2.8,1.2-2.8,2.8v60.4c0,0.5-0.4,0.9-0.9,0.9h-16c-1.5,0-2.8,1.2-2.8,2.8s1.2,2.8,2.8,2.8
			h16c3.6,0,6.5-2.9,6.5-6.5V78.1C200.4,76.6,199.1,75.4,197.6,75.4z"/>
		<path class="st0" d="M28.2,12.2c-1.5,0-2.8,1.2-2.8,2.8s1.2,2.8,2.8,2.8h0c1.5,0,2.8-1.2,2.8-2.8S29.8,12.2,28.2,12.2L28.2,12.2z"
			/>
		<path class="st0" d="M36.6,12.2c-1.5,0-2.8,1.2-2.8,2.8s1.2,2.8,2.8,2.8h0c1.5,0,2.8-1.2,2.8-2.8S38.2,12.2,36.6,12.2L36.6,12.2z"
			/>
		<path class="st0" d="M45,12.2c-1.5,0-2.8,1.2-2.8,2.8s1.2,2.8,2.8,2.8h0c1.5,0,2.8-1.2,2.8-2.8S46.6,12.2,45,12.2L45,12.2z"/>
		<path class="st0" d="M182.8,17.8c1.5,0,2.8-1.2,2.8-2.8s-1.2-2.8-2.8-2.8h-5.2c-1.5,0-2.8,1.2-2.8,2.8s1.2,2.8,2.8,2.8H182.8z"/>
		<path class="st0" d="M135.2,67.1c0-16.3-13.3-29.6-29.7-29.6S75.8,50.8,75.8,67.1s13.3,29.6,29.7,29.6S135.2,83.4,135.2,67.1z
			 M105.5,91.1c-13.3,0-24.1-10.8-24.1-24s10.8-24,24.1-24s24.1,10.8,24.1,24S118.8,91.1,105.5,91.1z"/>
		<path class="st0" d="M95.7,100.4c-1.5,0-2.8,1.2-2.8,2.8c0,1.5,1.2,2.8,2.8,2.8h19.6c1.5,0,2.8-1.2,2.8-2.8c0-1.5-1.2-2.8-2.8-2.8
			H95.7z"/>
		<path class="st0" d="M132.3,121.9c0-1.5-1.2-2.8-2.8-2.8H60c-1.5,0-2.8,1.2-2.8,2.8c0,1.5,1.2,2.8,2.8,2.8h69.5
			C131,124.7,132.3,123.4,132.3,121.9z"/>
		<path class="st0" d="M151,119.1h-10.2c-1.5,0-2.8,1.2-2.8,2.8c0,1.5,1.2,2.8,2.8,2.8H151c1.5,0,2.8-1.2,2.8-2.8
			C153.7,120.4,152.5,119.1,151,119.1z"/>
		<path class="st0" d="M60,127.6c-1.5,0-2.8,1.2-2.8,2.8c0,1.5,1.2,2.8,2.8,2.8h22.2c1.5,0,2.8-1.2,2.8-2.8c0-1.5-1.2-2.8-2.8-2.8
			H60z"/>
		<path class="st0" d="M92.8,133.1H151c1.5,0,2.8-1.2,2.8-2.8c0-1.5-1.2-2.8-2.8-2.8H92.8c-1.5,0-2.8,1.2-2.8,2.8
			C90,131.9,91.2,133.1,92.8,133.1L92.8,133.1z"/>
		<path class="st0" d="M115.8,56.8c-1.1-1.1-2.8-1.1-3.9,0l-6.4,6.4l-6.4-6.4c-1.1-1.1-2.8-1.1-3.9,0c-1.1,1.1-1.1,2.8,0,3.9
			l6.4,6.4l-6.4,6.4c-1.1,1.1-1.1,2.8,0,3.9c0.5,0.5,1.3,0.8,2,0.8c0.7,0,1.4-0.3,2-0.8l6.4-6.4l6.4,6.4c0.5,0.5,1.3,0.8,2,0.8
			c0.7,0,1.4-0.3,2-0.8c1.1-1.1,1.1-2.8,0-3.9l-6.4-6.4l6.4-6.4C116.9,59.6,116.9,57.9,115.8,56.8z"/>
	</g>
</g>
</svg>
