<?xml version="1.0" encoding="utf-8"?>
<!-- Generator: Adobe Illustrator 24.0.2, SVG Export Plug-In . SVG Version: 6.00 Build 0)  -->
<svg version="1.1" xmlns="http://www.w3.org/2000/svg" xmlns:xlink="http://www.w3.org/1999/xlink" x="0px" y="0px"
	 viewBox="0 0 60 60" style="enable-background:new 0 0 60 60;" xml:space="preserve">
<style type="text/css">
	.st0{fill:#29519B;enable-background:new    ;}
	.st1{fill:#A2A1A2;enable-background:new    ;}
	.st2{fill:#FFFFFF;}
	.st3{fill:#FDFDFD;}
	.st4{fill:none;stroke:#FDFDFD;stroke-width:2;}
</style>
<g id="Capa_1">
	<rect y="27.4" class="st0" width="60" height="32.6"/>
	<rect y="-0.1" class="st1" width="60" height="27.5"/>
	<g>
		<path class="st2" d="M51.7,47v10h-1.6c-0.8-1.2-1.9-1.8-3.5-1.8c-2.1,0-8.1,1.8-16.6,1.8c-15,0-25.5-6.2-25.5-13.7
			c0-8.3,10.3-14.7,26.8-14.7c6.9,0,12.6,1.4,15.3,1.4c1.3,0,2.8-0.6,3.5-1.3h1.6V38h-1.9c-3.7-4-8.9-8-17.4-8
			c-9,0-15.3,3.9-15.3,12.8c0,9.7,7.8,12.8,14.9,12.8c7.7,0,13.8-3.7,17.8-8.6H51.7z"/>
	</g>
	<g>
		<path class="st3" d="M58,1.9V58H2V1.9H58 M60-0.1H0V60h60V-0.1L60-0.1z"/>
	</g>
	<rect x="1.6" y="27.6" class="st4" width="56.4" height="0.2"/>
	<g id="Capa_5">
		<g>
			<path class="st2" d="M10.9,23.1c0,2.3,1.5,3,3.4,3V27H6.8v-0.9c1.9-0.1,2.9-1.1,2.9-3V5.5c0-1-2.1-1.1-2.8-1.1V3.5h8l13.9,17.2
				V7.4c0-2.5-0.9-3-3.4-3V3.5h7.3v0.9c-2.1,0-2.8,0.4-2.8,3v20h-1.2L10.9,5.7h-0.1V23.1z"/>
		</g>
	</g>
</g>
<g id="Capa_4">
	<g>
		<path class="st2" d="M29.2,7.3c0-2.8-0.4-3-3.7-3V3.4h12.8c4.9,0,12.4,0.7,12.4,5.5c0,3.2-3.5,4.9-7,5.4v0.1
			c4.1,0.6,8.7,2.3,8.7,6.2c0,5.4-6.6,6.2-12.4,6.2H28.4v-0.9c3.3,0,0.1-1.2,0.7-3V7.3z M33.9,13.8h4.7c4.1-0.1,6.1-2,6.1-5.1
			c0-3.4-3.4-4.4-8.7-4.4c-1.9,0-2.1,0.1-2.1,1.3V13.8z M33.9,23.9c0,1.9,2,1.9,4.3,1.9c4.7,0,7.9-1.8,7.9-5.5
			c0-4.4-3.5-5.7-8.5-5.7h-3.7V23.9z"/>
	</g>
</g>
</svg>
