<?xml version="1.0" encoding="utf-8"?>
<!-- Generator: Adobe Illustrator 24.0.2, SVG Export Plug-In . SVG Version: 6.00 Build 0)  -->
<svg version="1.1" xmlns="http://www.w3.org/2000/svg" xmlns:xlink="http://www.w3.org/1999/xlink" x="0px" y="0px"
	 viewBox="0 0 170 60" style="enable-background:new 0 0 170 60;" xml:space="preserve">
<style type="text/css">
	.st0{display:none;}
	.st1{display:inline;fill:#C6B942;}
	.st2{fill:#29519B;enable-background:new    ;}
	.st3{fill:#ABACAD;enable-background:new    ;}
	.st4{fill:#FFFFFF;}
	.st5{fill:#FDFDFD;}
	.st6{fill:none;stroke:#FDFDFD;stroke-width:2;}
</style>
<g id="Capa_2" class="st0">
	<rect y="0" class="st1" width="170" height="60.1"/>
</g>
<g id="Capa_1">
	<rect y="27.4" class="st2" width="60" height="32.6"/>
	<rect y="0" class="st3" width="60" height="27.5"/>
	<g>
		<path class="st4" d="M51.7,47v10h-1.6c-0.8-1.2-1.9-1.8-3.5-1.8c-2.1,0-8.1,1.8-16.6,1.8c-15,0-25.5-6.2-25.5-13.7
			c0-8.3,10.3-14.7,26.8-14.7c6.9,0,12.6,1.4,15.3,1.4c1.3,0,2.8-0.6,3.5-1.3h1.6V38h-1.9c-3.7-4-8.9-8-17.4-8
			c-9,0-15.3,3.9-15.3,12.8c0,9.7,7.8,12.8,14.9,12.8c7.7,0,13.8-3.7,17.8-8.6H51.7z"/>
	</g>
	<g>
		<path class="st5" d="M58,2V58H2V2H58 M60,0H0V60h60V0L60,0z"/>
	</g>
	<rect x="1.6" y="27.4" class="st6" width="168.4" height="0.4"/>
	<g>
		<path class="st4" d="M10.9,23.1c0,2.3,1.5,3,3.4,3V27H6.8v-0.9c1.9-0.1,2.9-1.1,2.9-3V5.5c0-1-2.1-1.1-2.8-1.1V3.5h8l13.9,17.2
			V7.4c0-2.5-0.9-3-3.4-3V3.5h7.3v0.9c-2.1,0-2.8,0.4-2.8,3v20h-1.2L10.9,5.7h-0.1V23.1z"/>
	</g>
	<g>
		<path class="st4" d="M29.2,7.3c0-2.8-0.4-3-3.7-3V3.4h12.8c4.9,0,12.4,0.7,12.4,5.5c0,3.2-3.5,4.9-7,5.4v0.1
			c4.1,0.6,8.7,2.3,8.7,6.2c0,5.4-6.6,6.2-12.4,6.2H28.4v-0.9c3.3,0,0.1-1.2,0.7-3V7.3z M33.9,13.8h4.7c4.1-0.1,6.1-2,6.1-5.1
			c0-3.4-3.4-4.4-8.7-4.4c-1.9,0-2.1,0.1-2.1,1.3V13.8z M33.9,24c0,1.9,2,1.9,4.3,1.9c4.7,0,7.9-1.8,7.9-5.5c0-4.4-3.5-5.7-8.5-5.7
			h-3.7V24z"/>
	</g>
</g>
<g id="Capa_3">
	<g>
		<path class="st4" d="M70.1,20.7L70.1,20.7l0.1-1.9c0-1.9-0.1-4.3-0.3-5.6c0.3,0,0.6,0,0.9,0c0.2,0,0.5,0,0.6,0
			c-0.1,1.3-0.2,3.7-0.2,5.6V20c0,1.6,0,3.1,0.1,4h-1.5c-1.3-1.7-4.1-5.1-6-7.3c-0.1-0.1-0.3-0.3-0.4-0.5l0,0v2.2
			c0,1.9,0.1,4.3,0.3,5.6c-0.3,0-0.6,0-0.8,0c-0.2,0-0.5,0-0.7,0c0.1-1.3,0.2-3.7,0.2-5.6v-0.8c0-2,0-3.8-0.1-4.5h1.6
			c1.9,2.4,4.2,5.1,5.8,7C69.8,20.3,69.9,20.5,70.1,20.7z"/>
	</g>
	<g>
		<path class="st4" d="M82.2,19.2c0,1.3-0.2,2.3-0.6,3c-0.7,1.3-1.9,2.1-3.9,2.1c-3.1,0-4.7-1.3-4.7-4.6c0-1,0-2,0-2.7
			c0-1.7,0-2.9-0.1-3.8c0.4,0,0.8,0,1.2,0c0.4,0,0.9,0,1.4,0c-0.2,1.3-0.2,3.4-0.2,5.7c0,2.6,0.3,4.3,2.8,4.3c1.5,0,2.2-0.7,2.6-1.8
			c0.3-0.7,0.3-1.7,0.3-2.7c0-2.3-0.1-4.3-0.2-5.5c0.4,0,0.6,0,0.8,0s0.5,0,0.8,0C82.2,14.6,82.2,16.5,82.2,19.2z"/>
	</g>
	<g>
		<path class="st4" d="M84.1,24c0.1-1.3,0.1-3.4,0.1-4.8v-1.6c0-1.4,0-3.2-0.1-4.5c0.4,0,1.2,0,1.7,0c1,0,3.1,0,4.1,0
			c0,0.3,0,0.5,0,0.6c0,0.1,0,0.3,0,0.6c-0.7-0.1-2.2-0.2-3.4-0.2c0,0.8-0.1,2-0.1,3.2v0.5c1.6,0,2.6-0.1,3.2-0.2c0,0.3,0,0.5,0,0.6
			c0,0.1,0,0.3,0,0.6c-0.6-0.1-1.6-0.1-3.2-0.1v0.6c0,1.4,0,3,0.1,3.7c1.1,0,2.4-0.1,3.5-0.3c0,0.3,0,0.5,0,0.6c0,0.1,0,0.3,0,0.6
			c-0.5,0-1.2,0-2,0s-1.6,0-2.2,0C85.3,24,84.4,24,84.1,24z"/>
	</g>
	<g>
		<path class="st4" d="M73.5,41.7c0.1-1.3,0.1-3.4,0.1-4.8v-1.6c0-1.4,0-3.2-0.1-4.5c0.4,0,1.2,0,1.7,0c1,0,3.1,0,4.1,0
			c0,0.3,0,0.5,0,0.6c0,0.1,0,0.3,0,0.6c-0.7-0.1-2.2-0.2-3.4-0.2c0,0.8-0.1,2-0.1,3.2v0.5c1.6,0,2.6-0.1,3.2-0.2c0,0.3,0,0.5,0,0.6
			c0,0.1,0,0.3,0,0.6c-0.6-0.1-1.6-0.1-3.2-0.1v0.6c0,1.4,0,3,0.1,3.7c1.1,0,2.4-0.1,3.5-0.3c0,0.3,0,0.5,0,0.6c0,0.1,0,0.3,0,0.6
			c-0.5,0-1.2,0-2,0c-0.8,0-1.6,0-2.2,0C74.8,41.7,73.8,41.7,73.5,41.7z"/>
	</g>
	<g>
		<path class="st4" d="M95.4,24c-0.2,0-0.5,0-0.7,0c-0.2,0-0.6,0-0.8,0c-0.7-2.1-2.5-7.3-3.9-10.8l0,0c0.4,0,0.9,0,1.3,0
			c0.4,0,0.8,0,1.2,0c0.6,2.3,2,6.1,2.8,8.4h0c0.8-2.3,2.2-6.3,2.7-8.4c0.3,0,0.5,0,0.7,0c0.1,0,0.5,0,0.7,0l0.1,0
			C98.5,15.4,96.4,21.2,95.4,24z"/>
	</g>
	<g>
		<path class="st4" d="M105,24.3c-3.5,0-5.8-2.2-5.8-5.7s2.2-5.7,5.8-5.7c3.6,0,5.8,2.2,5.8,5.7C110.8,22,108.6,24.3,105,24.3z
			 M105,13.8c-2.1,0-3.2,1.6-3.2,4.8c0,3.1,1.2,4.8,3.2,4.8s3.3-1.7,3.3-4.8C108.3,15.5,107.1,13.8,105,13.8z"/>
	</g>
	<g>
		<path class="st4" d="M158.7,24.3c-3.5,0-5.8-2.2-5.8-5.7s2.2-5.7,5.8-5.7c3.6,0,5.8,2.2,5.8,5.7C164.4,22,162.2,24.3,158.7,24.3z
			 M158.7,13.8c-2.1,0-3.2,1.6-3.2,4.8c0,3.1,1.2,4.8,3.2,4.8s3.3-1.7,3.3-4.8C161.9,15.5,160.7,13.8,158.7,13.8z"/>
	</g>
	<g>
		<path class="st4" d="M135.7,42c-3.5,0-5.8-2.2-5.8-5.7s2.2-5.7,5.8-5.7c3.6,0,5.8,2.2,5.8,5.7C141.5,39.7,139.3,42,135.7,42z
			 M135.7,31.5c-2.1,0-3.2,1.6-3.2,4.8c0,3.1,1.2,4.8,3.2,4.8c2.1,0,3.3-1.7,3.3-4.8C139,33.2,137.8,31.5,135.7,31.5z"/>
	</g>
	<g>
		<path class="st4" d="M119.2,24c-0.5,0-1.7,0-2.1,0c-0.3,0-0.9,0-1.5,0c0.1-1.3,0.1-3.4,0.1-4.8v-1.6c0-1.4,0-3.2-0.1-4.5
			c0.6,0,1.2,0,1.5,0c0.3,0,0.7,0,1.1,0c0.5,0,1,0,1.3,0c1.6,0,3.2,0.3,3.2,2.3c0,1.6-1,2.5-2.6,2.8v0c1.9,0.2,3.1,0.9,3.1,2.7
			C123.2,23.4,121.1,24,119.2,24z M118.6,14c-0.2,0-0.4,0-0.6,0.1c0,0.9-0.1,1.9-0.1,2.8v1h0.6c1.1,0,2.1-0.4,2.1-2.1
			C120.6,14.2,119.5,14,118.6,14z M118.4,18.7h-0.5v1.1c0,1,0,2.6,0.1,3.3c0.3,0,0.6,0.1,0.9,0.1c1,0,2-0.6,2-2.4
			C120.9,19.1,120,18.7,118.4,18.7z"/>
	</g>
	<g>
		<path class="st4" d="M132.7,24c-0.5,0-1,0-1.4,0c-0.2,0-0.6,0-1.1,0c-0.2-0.9-0.7-2.5-1.1-3.8c-0.5,0-1.2,0-1.8,0
			c-0.6,0-1.3,0-1.7,0c-0.4,1.2-1,2.9-1.2,3.8c-0.2,0-0.4,0-0.6,0c-0.3,0-0.5,0-0.8,0l0,0c1.6-3.7,3.1-7.3,4.5-10.8h1.6
			C130.2,16.6,132,22,132.7,24L132.7,24z M127.6,15.3c-0.5,1.1-1.2,3-1.6,4.1c0.4,0,0.9,0,1.4,0c0.5,0,1.1,0,1.6,0
			C128.7,18.4,128.1,16.5,127.6,15.3z"/>
	</g>
	<g>
		<path class="st4" d="M120.4,41.7c-0.5,0-1,0-1.4,0c-0.2,0-0.6,0-1.1,0c-0.2-0.9-0.7-2.5-1.1-3.8c-0.5,0-1.2,0-1.8,0
			c-0.6,0-1.3,0-1.7,0c-0.4,1.2-1,2.9-1.2,3.8c-0.2,0-0.4,0-0.6,0c-0.3,0-0.5,0-0.8,0l0,0c1.6-3.7,3.1-7.3,4.5-10.8h1.6
			C117.8,34.3,119.7,39.7,120.4,41.7L120.4,41.7z M115.3,33c-0.5,1.1-1.2,3-1.6,4.1c0.4,0,0.9,0,1.4,0c0.5,0,1.1,0,1.6,0
			C116.3,36.1,115.7,34.2,115.3,33z"/>
	</g>
	<g>
		<path class="st4" d="M165.9,41.7c-0.5,0-1,0-1.4,0c-0.2,0-0.6,0-1.1,0c-0.2-0.9-0.7-2.5-1.1-3.8c-0.5,0-1.2,0-1.8,0
			c-0.6,0-1.3,0-1.7,0c-0.4,1.2-1,2.9-1.2,3.8c-0.2,0-0.4,0-0.6,0c-0.3,0-0.5,0-0.8,0l0,0c1.6-3.7,3.1-7.3,4.5-10.8h1.6
			C163.3,34.3,165.2,39.7,165.9,41.7L165.9,41.7z M160.8,33c-0.5,1.1-1.2,3-1.6,4.1c0.4,0,0.9,0,1.4,0c0.5,0,1.1,0,1.6,0
			C161.8,36.1,161.2,34.2,160.8,33z"/>
	</g>
	<g>
		<path class="st4" d="M140.9,20.7L140.9,20.7l0.1-1.9c0-1.9-0.1-4.3-0.3-5.6c0.3,0,0.6,0,0.8,0c0.2,0,0.5,0,0.6,0
			c-0.1,1.3-0.2,3.7-0.2,5.6V20c0,1.6,0,3.1,0.1,4h-1.4c-1.2-1.7-4-5.1-5.8-7.3c-0.1-0.1-0.2-0.3-0.4-0.5l0,0v2.2
			c0,1.9,0.1,4.3,0.3,5.6c-0.3,0-0.5,0-0.7,0c-0.2,0-0.5,0-0.7,0c0.1-1.3,0.2-3.7,0.2-5.6v-0.8c0-2,0-3.8-0.1-4.5h1.6
			c1.9,2.4,4.1,5.1,5.6,7C140.6,20.3,140.7,20.5,140.9,20.7z"/>
	</g>
	<g>
		<path class="st4" d="M152.3,15.6l-0.4,0c-0.3-1.2-1.4-1.7-2.8-1.7c-2.3,0-3.9,1.5-3.9,4.7c0,2.8,1.3,4.6,4.1,4.6
			c1.2,0,2.3-0.4,3-1.2l0.2,0.1c0,0.5-0.1,1.1-0.2,1.3c-0.7,0.5-1.9,0.9-3.6,0.9c-3.9,0-6.1-2-6.1-5.6c0-3.5,2.3-5.6,6.2-5.6
			c1.8,0,3.2,0.4,4,0.7C152.6,14.1,152.4,14.9,152.3,15.6z"/>
	</g>
	<g>
		<path class="st4" d="M100.1,33.3l-0.4,0c-0.3-1.2-1.4-1.7-2.8-1.7c-2.3,0-3.9,1.5-3.9,4.7c0,2.8,1.3,4.6,4.1,4.6
			c1.2,0,2.3-0.4,3-1.2l0.2,0.1c0,0.5-0.1,1.1-0.2,1.3c-0.7,0.5-1.9,0.9-3.6,0.9c-3.9,0-6.1-2-6.1-5.6c0-3.5,2.3-5.6,6.2-5.6
			c1.8,0,3.2,0.4,4,0.7C100.4,31.8,100.2,32.6,100.1,33.3z"/>
	</g>
	<g>
		<path class="st4" d="M129.6,33.3l-0.4,0c-0.3-1.2-1.4-1.7-2.8-1.7c-2.3,0-3.9,1.5-3.9,4.7c0,2.8,1.3,4.6,4.1,4.6
			c1.2,0,2.3-0.4,3-1.2l0.2,0.1c0,0.5-0.1,1.1-0.2,1.3c-0.7,0.5-1.9,0.9-3.6,0.9c-3.9,0-6.1-2-6.1-5.6c0-3.5,2.3-5.6,6.2-5.6
			c1.8,0,3.2,0.4,4,0.7C129.9,31.8,129.7,32.6,129.6,33.3z"/>
	</g>
	<g>
		<path class="st4" d="M66.6,41.7c-0.7,0-1.9,0-2.5,0c-0.4,0-1.2,0-1.7,0c0.1-1.3,0.1-3,0.1-4.5v-1.9c0-1.4,0-3.2-0.1-4.5
			c0.6,0,1.3,0,1.7,0c0.7,0,1.8,0,2.5,0c3.6,0,5.6,1.4,5.6,5.2C72.2,40.3,69.2,41.7,66.6,41.7z M66.3,31.8c-0.6,0-1.2,0.1-1.7,0.1
			c0,0.8-0.1,2.4-0.1,3.4v1.9c0,1,0,2.7,0.1,3.5c0.3,0.1,0.9,0.1,1.4,0.1c1.7,0,3.8-0.8,3.8-4.7C69.8,32.6,68.2,31.8,66.3,31.8z"/>
	</g>
	<g>
		<path class="st4" d="M80.7,41.7c0.1-1.3,0.1-3.4,0.1-4.8v-1.6c0-1.4,0-3.2-0.1-4.5c0.4,0,0.8,0,1.2,0s0.8,0,1.2,0
			c-0.1,1.3-0.1,3-0.1,4.5v1.6c0,1.4,0,3,0.1,3.8c1.1,0,2.5-0.1,3.9-0.3c0,0.3,0,0.5,0,0.6c0,0.1,0,0.3,0,0.6c-0.8,0-1.6,0-2.3,0
			c-0.8,0-1.5,0-2.2,0C82,41.7,81.1,41.7,80.7,41.7z"/>
	</g>
	<g>
		<path class="st4" d="M108.9,41.7c-0.4,0-0.7,0-1.1,0c0.1-1.3,0.1-3.2,0.1-4.6v-0.7c-0.7,0-1.6,0-2.5,0c-0.9,0-1.6,0-2.2,0v0.7
			c0,1.4,0,3.4,0.1,4.6c-0.4,0-0.8,0-1.1,0c-0.4,0-0.7,0-1.1,0c0.1-1.3,0.1-3.4,0.1-4.8v-1.6c0-1.4,0-3.2-0.1-4.5c0.4,0,0.8,0,1.1,0
			c0.4,0,0.7,0,1.1,0c-0.1,1.3-0.1,2.5-0.1,3.9v0.6c0.7,0,1.4,0,2.2,0c0.8,0,1.9,0,2.5,0v-0.5c0-1.4,0-2.6-0.1-3.9
			c0.4,0,0.8,0,1.1,0s0.7,0,1.1,0c-0.1,1.3-0.1,3-0.1,4.5v1.6c0,1.4,0,3.5,0.1,4.8C109.6,41.7,109.3,41.7,108.9,41.7z"/>
	</g>
	<g>
		<path class="st4" d="M148.3,42c-1.1,0-2.3-0.3-2.9-0.6c0-0.5,0.2-1.4,0.4-2l0.4,0c0.3,1.2,1.2,1.7,2.3,1.7c0.9,0,1.9-0.5,1.9-1.8
			c0-1.1-0.8-1.6-2.1-2.1c-1.2-0.5-2.5-1.2-2.5-3.1c0-2.4,2.1-3.3,3.9-3.3c0.9,0,1.8,0.2,2.6,0.5c-0.2,0.5-0.4,1.3-0.5,1.9l-0.4,0
			c-0.2-0.9-0.7-1.5-1.8-1.5c-0.9,0-1.8,0.5-1.8,1.6c0,1,0.6,1.4,1.9,2c1.6,0.7,2.8,1.4,2.8,3.3C152.4,40.7,150.5,42,148.3,42z"/>
	</g>
	<g>
		<path class="st4" d="M154.7,42c-0.7,0-1.2-0.6-1.2-1.2c0-0.7,0.5-1.2,1.2-1.2c0.7,0,1.2,0.6,1.2,1.2C155.9,41.4,155.3,42,154.7,42
			z"/>
	</g>
	<g>
		<path class="st4" d="M167.9,41.7c-0.7,0-1.2-0.6-1.2-1.2c0-0.7,0.5-1.2,1.2-1.2c0.7,0,1.2,0.6,1.2,1.2
			C169.1,41.2,168.6,41.7,167.9,41.7z"/>
	</g>
</g>
</svg>
