<?xml version="1.0" encoding="utf-8"?>
<!-- Generator: Adobe Illustrator 25.3.0, SVG Export Plug-In . SVG Version: 6.00 Build 0)  -->
<svg version="1.1" id="Capa_1" xmlns="http://www.w3.org/2000/svg" xmlns:xlink="http://www.w3.org/1999/xlink" x="0px" y="0px"
	 viewBox="0 0 3003 1225.9" style="enable-background:new 0 0 3003 1225.9;" xml:space="preserve">
<style type="text/css">
	.st0{opacity:0.75;enable-background:new    ;}
	.st1{fill:#65A9DD;}
	.st2{enable-background:new    ;}
	.st3{fill:#016EB9;}
	.st4{fill:none;stroke:#1547A1;stroke-width:45;stroke-linecap:round;stroke-miterlimit:10;}
	.st5{fill:url(#SVGID_1_);}
	.st6{fill:#65A9DD;stroke:#65A9DD;stroke-miterlimit:10;}
	.st7{opacity:0.75;fill:#BBD1F5;stroke:#BBD1F5;stroke-miterlimit:10;enable-background:new    ;}
	.st8{fill:#26456B;}
	.st9{fill:none;stroke:#26456B;stroke-width:38;stroke-linecap:round;stroke-miterlimit:10;}
	.st10{fill:url(#SVGID_2_);}
</style>
<g id="Capa_12">
	<g class="st0">
		<path class="st1" d="M1194.4,484.1c0,22.9-2.2,44.6-6.7,64.9h-74.5v109.8c-22.3,3.8-43.3,5.7-63,5.7c-23.6,0-47.1-1.9-70.6-5.7
			V549H714.2c-28.6-44.5-28.6-101.2,0-169.9L868.8,18.2c49.6,3.8,95.5,18.1,137.5,43L870.8,383.9c-7,15.9-10.5,28.6-10.5,38.2h119.3
			v-148c24.2-3.8,47.7-5.7,70.6-5.7c21,0,42,1.9,63,5.7v148h75.4C1192.5,441.8,1194.4,462.5,1194.4,484.1z"/>
		<path class="st1" d="M1516.1,674.1c-86.6,0-152.8-29.7-198.6-89.3c-45.8-59.5-68.7-138-68.7-235.3c0-96.7,23.2-174.9,69.7-234.4
			c46.5-59.5,112.3-89.3,197.6-89.3c85.9,0,152,30.2,198.1,90.7c46.1,60.5,69.2,138.1,69.2,233c0,96.8-23.2,175-69.7,234.9
			C1667.3,644.2,1601.4,674.1,1516.1,674.1z M1516.1,550c79.6,0,119.3-66.8,119.3-200.5c0-128.6-39.8-192.9-119.3-192.9
			c-79.6,0-119.3,64.3-119.3,192.9C1396.8,483.2,1436.6,550,1516.1,550z"/>
		<path class="st1" d="M2340.1,484.1c0,22.9-2.2,44.6-6.7,64.9h-74.5v109.8c-22.3,3.8-43.3,5.7-63,5.7c-23.6,0-47.1-1.9-70.6-5.7
			V549h-265.4c-28.6-44.5-28.6-101.2,0-169.9l154.7-360.9c49.6,3.8,95.5,18.1,137.5,43l-135.6,322.7c-7,15.9-10.5,28.6-10.5,38.2
			h119.3v-148c24.2-3.8,47.7-5.7,70.6-5.7c21,0,42,1.9,63,5.7v148h75.4C2338.1,441.8,2340.1,462.5,2340.1,484.1z"/>
	</g>
</g>
<g id="Capa_11">
	<g class="st2">
		<path class="st3" d="M1164.6,484.1c0,22.9-2.2,44.6-6.7,64.9h-74.5v109.8c-22.3,3.8-43.3,5.7-63,5.7c-23.6,0-47.1-1.9-70.6-5.7
			V549H684.4c-28.6-44.5-28.6-101.2,0-169.9L839.1,18.2c49.6,3.8,95.5,18.1,137.5,43L841,383.9c-7,15.9-10.5,28.6-10.5,38.2h119.3
			v-148c24.2-3.8,47.7-5.7,70.6-5.7c21,0,42,1.9,63,5.7v148h75.4C1162.7,441.8,1164.6,462.5,1164.6,484.1z"/>
		<path class="st3" d="M1486.4,674.1c-86.6,0-152.8-29.7-198.6-89.3c-45.8-59.5-68.7-138-68.7-235.3c0-96.7,23.2-174.9,69.7-234.4
			c46.5-59.5,112.3-89.3,197.6-89.3c85.9,0,151.9,30.2,198.1,90.7c46.1,60.5,69.2,138.1,69.2,233c0,96.8-23.2,175-69.7,234.9
			C1637.5,644.2,1571.6,674.1,1486.4,674.1z M1486.4,550c79.6,0,119.3-66.8,119.3-200.5c0-128.6-39.8-192.9-119.3-192.9
			c-79.6,0-119.3,64.3-119.3,192.9C1367,483.2,1406.8,550,1486.4,550z"/>
		<path class="st3" d="M2310.3,484.1c0,22.9-2.2,44.6-6.7,64.9h-74.5v109.8c-22.3,3.8-43.3,5.7-63,5.7c-23.6,0-47.1-1.9-70.6-5.7
			V549H1830c-28.6-44.5-28.6-101.2,0-169.9l154.7-360.9c49.6,3.8,95.5,18.1,137.5,43l-135.6,322.7c-7,15.9-10.5,28.6-10.5,38.2
			h119.3v-148c24.2-3.8,47.7-5.7,70.6-5.7c21,0,42,1.9,63,5.7v148h75.4C2308.4,441.8,2310.3,462.5,2310.3,484.1z"/>
	</g>
</g>
<g id="Capa_2_1_">
	<path class="st4" d="M22.6,892.3c-6.5,0.3,278.9,123,395.6-38.5c72.4-100.1,100.5-179.9,130.5-241.7
		c48.4-99.5,80.9-150.5,156.1-151.8C826.7,458.2,884.5,610,931.5,841"/>
</g>
<g id="Capa_3">
	
		<linearGradient id="SVGID_1_" gradientUnits="userSpaceOnUse" x1="863.7878" y1="158.8988" x2="1177.4479" y2="233.0388" gradientTransform="matrix(1 0 0 -1 -74.4 1153.7496)">
		<stop  offset="0.14" style="stop-color:#1547A1"/>
		<stop  offset="0.37" style="stop-color:#285EAF"/>
		<stop  offset="0.87" style="stop-color:#5898D3"/>
		<stop  offset="1" style="stop-color:#65A9DD"/>
	</linearGradient>
	<path class="st5" d="M819.3,947.8c-30.3-141.4,185.3-233.8,253.8-72.7l52.8,201l-265.2,71.3C860.6,1147.4,830,997.6,819.3,947.8z"
		/>
</g>
<g id="Capa_4">
	
		<ellipse transform="matrix(0.9647 -0.2632 0.2632 0.9647 -258.0402 300.8999)" class="st6" cx="994.1" cy="1113.6" rx="137.5" ry="33.8"/>
</g>
<g id="Capa_5">
	<path class="st7" d="M1041.7,1044.9l-59.2-221.7c0,0,35.8,6.6,67,64.2c17.8,32.9,30,81.1,43.5,157.5H1041.7z"/>
</g>
<g id="Capa_6">
	
		<ellipse transform="matrix(0.1917 -0.9815 0.9815 0.1917 -342.5348 1841.3187)" class="st8" cx="946.6" cy="1128.6" rx="12" ry="26.8"/>
	
		<ellipse transform="matrix(0.1917 -0.9815 0.9815 0.1917 -236.3092 1910.4027)" class="st8" cx="1041.6" cy="1098.7" rx="12" ry="26.8"/>
</g>
<g id="Capa_7">
	<path class="st4" d="M1619.4,1147.4c0,0,260,166.9,511.1-110.9c48.2-53.4,101.6-142.3,132.6-213.3
		c53.7-123.3,72.6-230.9,115.5-280.7c17.9-20.8,52.3-29.8,77-11.9c29.1,21.1,63.2,100.4,77,110.3c0,0,55.6,70.6,104.8,94.1"/>
</g>
<g id="Capa_9">
	<line class="st9" x1="1337.2" y1="882.9" x2="1428.1" y2="945"/>
	<line class="st9" x1="1268.3" y1="992.4" x2="1359.2" y2="1054.5"/>
</g>
<g id="Capa_8">
	
		<linearGradient id="SVGID_2_" gradientUnits="userSpaceOnUse" x1="1150.174" y1="-127.0266" x2="1463.8339" y2="-52.8966" gradientTransform="matrix(-0.76 0.65 0.65 0.76 2554.5571 282.7947)">
		<stop  offset="0.14" style="stop-color:#1547A1"/>
		<stop  offset="0.37" style="stop-color:#285EAF"/>
		<stop  offset="0.87" style="stop-color:#5898D3"/>
		<stop  offset="1" style="stop-color:#65A9DD"/>
	</linearGradient>
	<path class="st10" d="M1606,988.7c114.9,87.8,11,298.2-145.7,220.2l-170.7-118.6l155.3-226.5C1444.9,863.9,1565.5,957.8,1606,988.7
		z"/>
</g>
<g id="Capa_10">
	<path class="st7" d="M1337.9,1095.1l38.5-53.2l195.6,144.6c0,0-59.4,26.2-124.2-17.3C1360.2,1110.3,1337.9,1095.1,1337.9,1095.1z"
		/>
</g>
</svg>
